#!OML:ASF F:\VICON\USERDATA\INSTALL\Justin_Nancy\Justin_Nancy.ASF
:FULLY-SPECIFIED
:DEGREES
81
root 5.33757 16.9509 -4.44631 -0.0928956 -50.1793 9.56954
lowerback 13.4229 -0.324058 -3.58134
upperback -0.00720796 -0.891075 1.49094
thorax -7.47787 -0.277363 3.79323
lowerneck -18.6858 -3.56415 -10.6622
upperneck 14.2238 -3.30523 7.16393
head 7.75463 -1.4727 3.72774
rclavicle 2.92213e-014 -7.95139e-015
rhumerus -50.4022 5.33969 -89.8884
rradius 90.435
rwrist -5.24076
rhand -14.9677 24.4242
rfingers 7.12502
rthumb 11.1959 -5.25704
lclavicle 2.92213e-014 -7.95139e-015
lhumerus -45.0174 -13.7426 95.9064
lradius 101.917
lwrist 24.5521
lhand -16.9034 8.66521
lfingers 7.12502
lthumb 9.32858 38.4388
rfemur -31.6043 7.59105 25.8103
rtibia 45.535
rfoot -13.9722 -8.45174
rtoes 8.80685
lfemur -3.16279 -4.14612 -17.9699
ltibia 63.6572
lfoot 16.9828 -7.24932
ltoes 14.3489
82
root 5.16286 16.8133 -4.17717 1.2607 -49.6925 7.67018
lowerback 13.4384 -0.625468 -2.12028
upperback 0.094638 -1.04534 1.76285
thorax -7.3817 -0.405616 3.28108
lowerneck -18.9266 -3.56009 -10.3084
upperneck 14.276 -3.34054 6.99662
head 7.80692 -1.48212 3.60839
rclavicle -3.61788e-014 3.97569e-015
rhumerus -48.8621 5.45136 -90.1842
rradius 89.6165
rwrist -5.9954
rhand -14.39 23.829
rfingers 7.12502
rthumb 11.7531 -5.82123
lclavicle -3.61788e-014 3.97569e-015
lhumerus -44.808 -13.5305 95.9931
lradius 101.009
lwrist 24.6523
lhand -17.6572 8.65659
lfingers 7.12502
lthumb 8.60118 38.4614
rfemur -30.8642 7.54901 27.1181
rtibia 46.6274
rfoot -15.4096 -10.0508
rtoes 7.18541
lfemur -4.10748 -1.76838 -16.1205
ltibia 65.8889
lfoot 11.2384 -13.5352
ltoes -18.5572
83
root 4.95669 16.7667 -3.9219 2.14697 -49.5982 6.45876
lowerback 13.7064 -0.719841 -1.56566
upperback 0.00706912 -1.06203 2.09366
thorax -7.62943 -0.422823 3.33225
lowerneck -18.9159 -3.50131 -10.21
upperneck 14.3351 -3.25973 6.83206
head 7.81262 -1.45515 3.54719
rclavicle 5.36719e-014 1.35174e-014
rhumerus -47.7369 6.09879 -90.4596
rradius 89.022
rwrist -7.03561
rhand -14.3781 23.475
rfingers 7.12502
rthumb 11.7645 -6.17464
lclavicle 5.36719e-014 1.35174e-014
lhumerus -45.0436 -12.7614 96.2185
lradius 100.252
lwrist 24.3899
lhand -18.0874 8.38421
lfingers 7.12502
lthumb 8.18599 38.2056
rfemur -29.799 7.82562 27.9452
rtibia 47.2609
rfoot -16.7995 -11.1147
rtoes 5.60947
lfemur -6.44482 -1.59259 -14.6048
ltibia 68.4265
lfoot 10.7166 -12.6525
ltoes -15.7106
84
root 4.75844 16.727 -3.65552 2.47934 -48.779 6.14861
lowerback 13.6711 -0.979469 -1.18789
upperback 0.0705155 -1.33948 2.21078
thorax -7.52803 -0.572472 3.29488
lowerneck -19.1327 -3.54012 -10.1742
upperneck 14.1474 -3.26934 6.71355
head 7.78541 -1.46311 3.49683
rclavicle 8.11041e-014 1.66979e-014
rhumerus -46.294 6.42257 -90.3633
rradius 88.6037
rwrist -6.64953
rhand -13.0081 22.6194
rfingers 7.12502
rthumb 13.0854 -6.95014
lclavicle 8.11041e-014 1.66979e-014
lhumerus -45.04 -12.1262 96.4183
lradius 99.7064
lwrist 23.8346
lhand -20.1154 8.09741
lfingers 7.12502
lthumb 6.22845 37.9858
rfemur -28.9607 7.24437 28.0843
rtibia 47.9872
rfoot -18.23 -11.9742
rtoes 4.4731
lfemur -8.81678 -1.78358 -13.9308
ltibia 70.6206
lfoot 9.33882 -12.3382
ltoes -14.8289
85
root 4.56225 16.6858 -3.39872 2.33026 -48.5711 6.31272
lowerback 13.5498 -0.955555 -1.12072
upperback 0.330112 -1.30766 2.13116
thorax -7.18646 -0.569956 3.15486
lowerneck -19.5025 -3.66822 -10.0296
upperneck 13.8901 -3.4037 6.54675
head 7.76903 -1.52578 3.39516
rclavicle 1.05555e-013 -3.97569e-015
rhumerus -44.6892 6.71737 -90.7132
rradius 88.5501
rwrist -7.27994
rhand -13.0875 22.0047
rfingers 7.12502
rthumb 13.0089 -7.56968
lclavicle 1.05555e-013 -3.97569e-015
lhumerus -44.7638 -11.8031 96.5356
lradius 99.2194
lwrist 23.2634
lhand -18.6538 9.00286
lfingers 7.12502
lthumb 7.63936 38.8449
rfemur -27.9102 6.85196 27.9375
rtibia 48.4685
rfoot -19.3877 -12.637
rtoes 3.6389
lfemur -10.9348 -1.28612 -13.6801
ltibia 72.7186
lfoot 7.67566 -11.6953
ltoes -16.0608
86
root 4.36336 16.6636 -3.14618 2.19596 -48.1899 6.64783
lowerback 13.39 -0.998176 -1.11586
upperback 0.396872 -1.37323 1.99569
thorax -7.02446 -0.607417 3.01343
lowerneck -19.8131 -3.74284 -9.97336
upperneck 13.9922 -3.48541 6.5097
head 7.8611 -1.56094 3.36265
rclavicle 2.74323e-014 2.3059e-014
rhumerus -43.5249 7.11431 -91.2927
rradius 88.9199
rwrist -7.73992
rhand -13.3064 21.4743
rfingers 7.12502
rthumb 12.7978 -8.11342
lclavicle 2.74323e-014 2.3059e-014
lhumerus -44.9394 -11.6274 96.6981
lradius 99.0961
lwrist 22.6209
lhand -22.152 6.48012
lfingers 7.12502
lthumb 4.26199 36.4172
rfemur -26.9194 6.42127 27.6565
rtibia 48.7843
rfoot -20.6479 -13.0196
rtoes 4.15734
lfemur -13.5195 -1.27176 -13.5621
ltibia 74.6517
lfoot 7.00304 -10.0001
ltoes -12.5404
87
root 4.16679 16.6406 -2.90468 2.38308 -48.5923 6.62534
lowerback 13.3856 -0.606162 -1.20773
upperback 0.332941 -0.866829 1.98095
thorax -7.11888 -0.355546 2.95483
lowerneck -19.8588 -3.92525 -9.99676
upperneck 14.062 -3.71941 6.47818
head 7.91264 -1.67631 3.3256
rclavicle 3.27995e-014 3.18055e-015
rhumerus -42.9162 7.41203 -91.4713
rradius 89.8974
rwrist -7.8901
rhand -13.0621 21.1092
rfingers 7.12502
rthumb 13.0333 -8.46362
lclavicle 3.27995e-014 3.18055e-015
lhumerus -45.3987 -11.8065 97.1177
lradius 99.2132
lwrist 21.8773
lhand -17.959 8.46825
lfingers 7.12502
lthumb 8.30988 38.2848
rfemur -25.8063 6.67295 27.641
rtibia 48.7402
rfoot -21.5131 -13.4356
rtoes 3.49012
lfemur -16.0544 -0.38031 -13.1388
ltibia 76.3264
lfoot 6.45914 -8.19331
ltoes -3.51553
